<svg width="150" height="26" viewBox="0 0 150 26" fill="none" xmlns="http://www.w3.org/2000/svg">
<path d="M0 17.6L0.547709 15.4H6.57251L6.0248 17.6H0ZM2.19084 13.2L2.73854 11H9.85876L9.31105 13.2H2.19084ZM19.252 19.8L19.7997 15.4L20.5939 8.8L20.8677 6.6275L19.252 19.8ZM5.47709 22C4.87461 22 4.35885 21.7846 3.92981 21.3537C3.50077 20.9229 3.28625 20.405 3.28625 19.8H19.252L20.8677 6.6275H17.8553L17.5541 8.965C17.5176 9.27667 17.3806 9.51958 17.1433 9.69375C16.906 9.86792 16.6321 9.93667 16.3217 9.9C16.0114 9.86333 15.7695 9.73042 15.596 9.50125C15.4226 9.27208 15.3541 9.00167 15.3906 8.69L15.6371 6.6275H11.2828L10.9816 8.9375C10.9451 9.24917 10.8081 9.49667 10.5708 9.68C10.3334 9.86333 10.0596 9.93667 9.74922 9.9C9.43885 9.86333 9.19238 9.72583 9.00981 9.4875C8.82724 9.24917 8.75422 8.97417 8.79073 8.6625L9.0372 6.6275H4.92938C5.00241 6.00417 5.23975 5.47708 5.6414 5.04625C6.04306 4.61542 6.53599 4.4 7.12022 4.4H9.31105C9.45711 3.025 9.92723 1.94792 10.7214 1.16875C11.5156 0.389583 12.5973 0 13.9666 0C15.135 0 16.1072 0.435417 16.8831 1.30625C17.6591 2.17708 18.0379 3.20833 18.0196 4.4H20.8129C21.4702 4.41833 22.0179 4.675 22.4561 5.17C22.8942 5.665 23.0677 6.2425 22.9764 6.9025L21.3333 20.1025C21.2602 20.6525 21.0183 21.1062 20.6076 21.4637C20.1968 21.8212 19.7175 22 19.1698 22H5.47709ZM11.5019 4.4H15.8562C15.8744 3.795 15.669 3.27708 15.24 2.84625C14.811 2.41542 14.2952 2.2 13.6927 2.2C13.0537 2.2 12.5471 2.39708 12.1728 2.79125C11.7986 3.18542 11.5749 3.72167 11.5019 4.4Z" fill="black"/>
<path d="M40.4844 9.20312C40.401 8.46354 40.0573 7.89063 39.4531 7.48438C38.849 7.07292 38.0885 6.86719 37.1719 6.86719C36.5156 6.86719 35.9479 6.97135 35.4688 7.17969C34.9896 7.38281 34.6172 7.66406 34.3516 8.02344C34.0911 8.3776 33.9609 8.78125 33.9609 9.23438C33.9609 9.61458 34.0495 9.94271 34.2266 10.2188C34.4089 10.4948 34.6458 10.7266 34.9375 10.9141C35.2344 11.0964 35.5521 11.25 35.8906 11.375C36.2292 11.4948 36.5547 11.5938 36.8672 11.6719L38.4297 12.0781C38.9401 12.2031 39.4635 12.3724 40 12.5859C40.5365 12.7995 41.0339 13.0807 41.4922 13.4297C41.9505 13.7786 42.3203 14.2109 42.6016 14.7266C42.888 15.2422 43.0312 15.8594 43.0312 16.5781C43.0312 17.4844 42.7969 18.2891 42.3281 18.9922C41.8646 19.6953 41.1901 20.25 40.3047 20.6563C39.4245 21.0625 38.3594 21.2656 37.1094 21.2656C35.9115 21.2656 34.875 21.0755 34 20.6953C33.125 20.3151 32.4401 19.776 31.9453 19.0781C31.4505 18.375 31.1771 17.5417 31.125 16.5781H33.5469C33.5938 17.1563 33.7813 17.638 34.1094 18.0234C34.4427 18.4036 34.8672 18.6875 35.3828 18.875C35.9036 19.0573 36.474 19.1484 37.0938 19.1484C37.776 19.1484 38.3828 19.0417 38.9141 18.8281C39.4505 18.6094 39.8724 18.3073 40.1797 17.9219C40.487 17.5313 40.6406 17.0755 40.6406 16.5547C40.6406 16.0807 40.5052 15.6927 40.2344 15.3906C39.9688 15.0885 39.6068 14.8385 39.1484 14.6406C38.6953 14.4427 38.1823 14.2682 37.6094 14.1172L35.7188 13.6016C34.4375 13.2526 33.4219 12.7396 32.6719 12.0625C31.9271 11.3854 31.5547 10.4896 31.5547 9.375C31.5547 8.45312 31.8047 7.64844 32.3047 6.96094C32.8047 6.27344 33.4818 5.73958 34.3359 5.35938C35.1901 4.97396 36.1536 4.78125 37.2266 4.78125C38.3099 4.78125 39.2656 4.97135 40.0938 5.35156C40.9271 5.73177 41.5833 6.25521 42.0625 6.92187C42.5417 7.58333 42.7917 8.34375 42.8125 9.20312H40.4844Z" fill="black"/>
<path d="M48.0645 13.875V21H45.7285V5H48.0332V10.9531H48.1816C48.4629 10.3073 48.8926 9.79427 49.4707 9.41406C50.0488 9.03385 50.804 8.84375 51.7363 8.84375C52.5592 8.84375 53.278 9.01302 53.8926 9.35156C54.5124 9.6901 54.9915 10.1953 55.3301 10.8672C55.6738 11.5339 55.8457 12.3672 55.8457 13.3672V21H53.5098V13.6484C53.5098 12.7682 53.2832 12.0859 52.8301 11.6016C52.377 11.112 51.7467 10.8672 50.9395 10.8672C50.3874 10.8672 49.8926 10.9844 49.4551 11.2188C49.0228 11.4531 48.6816 11.7969 48.4316 12.25C48.1868 12.6979 48.0645 13.2396 48.0645 13.875Z" fill="black"/>
<path d="M64.0176 21.2422C62.8926 21.2422 61.9108 20.9844 61.0723 20.4688C60.2337 19.9531 59.5827 19.2318 59.1191 18.3047C58.6556 17.3776 58.4238 16.2943 58.4238 15.0547C58.4238 13.8099 58.6556 12.7214 59.1191 11.7891C59.5827 10.8568 60.2337 10.1328 61.0723 9.61719C61.9108 9.10156 62.8926 8.84375 64.0176 8.84375C65.1426 8.84375 66.1243 9.10156 66.9629 9.61719C67.8014 10.1328 68.4525 10.8568 68.916 11.7891C69.3796 12.7214 69.6113 13.8099 69.6113 15.0547C69.6113 16.2943 69.3796 17.3776 68.916 18.3047C68.4525 19.2318 67.8014 19.9531 66.9629 20.4688C66.1243 20.9844 65.1426 21.2422 64.0176 21.2422ZM64.0254 19.2813C64.7546 19.2813 65.3587 19.0885 65.8379 18.7031C66.3171 18.3177 66.6712 17.8047 66.9004 17.1641C67.1348 16.5234 67.252 15.8177 67.252 15.0469C67.252 14.2813 67.1348 13.5781 66.9004 12.9375C66.6712 12.2917 66.3171 11.7734 65.8379 11.3828C65.3587 10.9922 64.7546 10.7969 64.0254 10.7969C63.291 10.7969 62.6816 10.9922 62.1973 11.3828C61.7181 11.7734 61.3613 12.2917 61.127 12.9375C60.8978 13.5781 60.7832 14.2813 60.7832 15.0469C60.7832 15.8177 60.8978 16.5234 61.127 17.1641C61.3613 17.8047 61.7181 18.3177 62.1973 18.7031C62.6816 19.0885 63.291 19.2813 64.0254 19.2813Z" fill="black"/>
<path d="M72.2188 25.5V9H74.5V10.9453H74.6953C74.8307 10.6953 75.026 10.4063 75.2812 10.0781C75.5365 9.75 75.8906 9.46354 76.3438 9.21875C76.7969 8.96875 77.3958 8.84375 78.1406 8.84375C79.1094 8.84375 79.974 9.08854 80.7344 9.57813C81.4948 10.0677 82.0911 10.7734 82.5234 11.6953C82.9609 12.6172 83.1797 13.7266 83.1797 15.0234C83.1797 16.3203 82.9635 17.4323 82.5312 18.3594C82.099 19.2813 81.5052 19.9922 80.75 20.4922C79.9948 20.987 79.1328 21.2344 78.1641 21.2344C77.4349 21.2344 76.8385 21.112 76.375 20.8672C75.9167 20.6224 75.5573 20.3359 75.2969 20.0078C75.0365 19.6797 74.8359 19.388 74.6953 19.1328H74.5547V25.5H72.2188ZM74.5078 15C74.5078 15.8437 74.6302 16.5833 74.875 17.2188C75.1198 17.8542 75.474 18.3516 75.9375 18.7109C76.401 19.0651 76.9688 19.2422 77.6406 19.2422C78.3385 19.2422 78.9219 19.0573 79.3906 18.6875C79.8594 18.3125 80.2135 17.8047 80.4531 17.1641C80.6979 16.5234 80.8203 15.8021 80.8203 15C80.8203 14.2083 80.7005 13.4974 80.4609 12.8672C80.2266 12.237 79.8724 11.7396 79.3984 11.375C78.9297 11.0104 78.3438 10.8281 77.6406 10.8281C76.9635 10.8281 76.3906 11.0026 75.9219 11.3516C75.4583 11.7005 75.1068 12.1875 74.8672 12.8125C74.6276 13.4375 74.5078 14.1667 74.5078 15Z" fill="black"/>
<path d="M93.2051 5L97.6582 18.0312H97.8379L102.291 5H104.9L99.1426 21H96.3535L90.5957 5H93.2051Z" fill="black"/>
<path d="M110.992 21.2422C109.81 21.2422 108.792 20.9896 107.938 20.4844C107.089 19.974 106.432 19.2578 105.969 18.3359C105.51 17.4089 105.281 16.3229 105.281 15.0781C105.281 13.849 105.51 12.7656 105.969 11.8281C106.432 10.8906 107.078 10.1589 107.906 9.63281C108.74 9.10677 109.714 8.84375 110.828 8.84375C111.505 8.84375 112.161 8.95573 112.797 9.17969C113.432 9.40365 114.003 9.75521 114.508 10.2344C115.013 10.7135 115.411 11.3359 115.703 12.1016C115.995 12.862 116.141 13.7865 116.141 14.875V15.7031H106.602V13.9531H113.852C113.852 13.3385 113.727 12.7943 113.477 12.3203C113.227 11.8411 112.875 11.4635 112.422 11.1875C111.974 10.9115 111.448 10.7734 110.844 10.7734C110.188 10.7734 109.615 10.9349 109.125 11.2578C108.641 11.5755 108.266 11.9922 108 12.5078C107.74 13.0182 107.609 13.5729 107.609 14.1719V15.5391C107.609 16.3411 107.75 17.0234 108.031 17.5859C108.318 18.1484 108.716 18.5781 109.227 18.875C109.737 19.1667 110.333 19.3125 111.016 19.3125C111.458 19.3125 111.862 19.25 112.227 19.125C112.591 18.9948 112.906 18.8021 113.172 18.5469C113.438 18.2917 113.641 17.9766 113.781 17.6016L115.992 18C115.815 18.651 115.497 19.2214 115.039 19.7109C114.586 20.1953 114.016 20.5729 113.328 20.8438C112.646 21.1094 111.867 21.2422 110.992 21.2422Z" fill="black"/>
<path d="M118.732 21V9H120.99V10.9062H121.115C121.334 10.2604 121.719 9.7526 122.271 9.38281C122.829 9.00781 123.459 8.82031 124.162 8.82031C124.308 8.82031 124.48 8.82552 124.678 8.83594C124.881 8.84635 125.04 8.85938 125.154 8.875V11.1094C125.061 11.0833 124.894 11.0547 124.654 11.0234C124.415 10.987 124.175 10.9688 123.936 10.9688C123.383 10.9688 122.891 11.0859 122.459 11.3203C122.032 11.5495 121.693 11.8698 121.443 12.2812C121.193 12.6875 121.068 13.151 121.068 13.6719V21H118.732Z" fill="black"/>
<path d="M136.168 11.9297L134.051 12.3047C133.962 12.0339 133.822 11.776 133.629 11.5312C133.441 11.2865 133.186 11.0859 132.863 10.9297C132.54 10.7734 132.137 10.6953 131.652 10.6953C130.991 10.6953 130.439 10.8438 129.996 11.1406C129.553 11.4323 129.332 11.8099 129.332 12.2734C129.332 12.6745 129.48 12.9974 129.777 13.2422C130.074 13.487 130.553 13.6875 131.215 13.8438L133.121 14.2812C134.225 14.5365 135.048 14.9297 135.59 15.4609C136.132 15.9922 136.402 16.6823 136.402 17.5313C136.402 18.25 136.194 18.8906 135.777 19.4531C135.366 20.0104 134.79 20.4479 134.051 20.7656C133.316 21.0833 132.465 21.2422 131.496 21.2422C130.152 21.2422 129.056 20.9557 128.207 20.3828C127.358 19.8047 126.837 18.9844 126.645 17.9219L128.902 17.5781C129.043 18.1667 129.332 18.612 129.77 18.9141C130.207 19.2109 130.777 19.3594 131.48 19.3594C132.246 19.3594 132.858 19.2005 133.316 18.8828C133.775 18.5599 134.004 18.1667 134.004 17.7031C134.004 17.3281 133.863 17.013 133.582 16.7578C133.306 16.5026 132.882 16.3099 132.309 16.1797L130.277 15.7344C129.158 15.4792 128.329 15.0729 127.793 14.5156C127.262 13.9583 126.996 13.2526 126.996 12.3984C126.996 11.6901 127.194 11.0703 127.59 10.5391C127.986 10.0078 128.533 9.59375 129.23 9.29688C129.928 8.99479 130.728 8.84375 131.629 8.84375C132.926 8.84375 133.947 9.125 134.691 9.6875C135.436 10.2448 135.928 10.9922 136.168 11.9297Z" fill="black"/>
<path d="M144.143 21.2422C142.96 21.2422 141.942 20.9896 141.088 20.4844C140.239 19.974 139.583 19.2578 139.119 18.3359C138.661 17.4089 138.432 16.3229 138.432 15.0781C138.432 13.849 138.661 12.7656 139.119 11.8281C139.583 10.8906 140.229 10.1589 141.057 9.63281C141.89 9.10677 142.864 8.84375 143.979 8.84375C144.656 8.84375 145.312 8.95573 145.947 9.17969C146.583 9.40365 147.153 9.75521 147.658 10.2344C148.163 10.7135 148.562 11.3359 148.854 12.1016C149.145 12.862 149.291 13.7865 149.291 14.875V15.7031H139.752V13.9531H147.002C147.002 13.3385 146.877 12.7943 146.627 12.3203C146.377 11.8411 146.025 11.4635 145.572 11.1875C145.124 10.9115 144.598 10.7734 143.994 10.7734C143.338 10.7734 142.765 10.9349 142.275 11.2578C141.791 11.5755 141.416 11.9922 141.15 12.5078C140.89 13.0182 140.76 13.5729 140.76 14.1719V15.5391C140.76 16.3411 140.9 17.0234 141.182 17.5859C141.468 18.1484 141.867 18.5781 142.377 18.875C142.887 19.1667 143.484 19.3125 144.166 19.3125C144.609 19.3125 145.012 19.25 145.377 19.125C145.742 18.9948 146.057 18.8021 146.322 18.5469C146.588 18.2917 146.791 17.9766 146.932 17.6016L149.143 18C148.965 18.651 148.648 19.2214 148.189 19.7109C147.736 20.1953 147.166 20.5729 146.479 20.8438C145.796 21.1094 145.018 21.2422 144.143 21.2422Z" fill="black"/>
</svg>
